<?xml version="1.0" encoding="UTF-8" standalone="no"?>
<!-- Created with Inkscape (http://www.inkscape.org/) -->

<svg
   width="215.77mm"
   height="215.77mm"
   viewBox="0 0 215.77001 215.77001"
   version="1.1"
   id="svg1"
   xml:space="preserve"
   inkscape:version="1.3.2 (091e20e, 2023-11-25, custom)"
   sodipodi:docname="logo.svg"
   xmlns:inkscape="http://www.inkscape.org/namespaces/inkscape"
   xmlns:sodipodi="http://sodipodi.sourceforge.net/DTD/sodipodi-0.dtd"
   xmlns="http://www.w3.org/2000/svg"
   xmlns:svg="http://www.w3.org/2000/svg"><sodipodi:namedview
     id="namedview1"
     pagecolor="#ffffff"
     bordercolor="#000000"
     borderopacity="0.25"
     inkscape:showpageshadow="2"
     inkscape:pageopacity="0.0"
     inkscape:pagecheckerboard="0"
     inkscape:deskcolor="#d1d1d1"
     inkscape:document-units="mm"
     inkscape:zoom="0.38047958"
     inkscape:cx="0"
     inkscape:cy="48.622846"
     inkscape:window-width="1920"
     inkscape:window-height="974"
     inkscape:window-x="-11"
     inkscape:window-y="-11"
     inkscape:window-maximized="1"
     inkscape:current-layer="layer1" /><defs
     id="defs1" /><g
     inkscape:label="Lager 1"
     inkscape:groupmode="layer"
     id="layer1"
     transform="translate(0.49053192,-42.914078)"><g
       id="g2"
       inkscape:label="logo"
       transform="translate(2.5000229,2.5000231)"><path
         style="fill:#000000"
         d="M 93.537251,237.54244 C 82.243021,236.09331 70.283796,232.1093 60.648797,226.58622 37.868736,213.52799 22.005752,191.55601 16.880645,165.9625 c -1.210211,-6.0435 -1.591746,-10.20522 -1.591746,-17.36256 0,-9.77661 1.087874,-17.34341 3.767544,-26.20549 8.603855,-28.454281 31.278178,-51.128604 59.732454,-59.732459 8.92011,-2.697216 16.336482,-3.767544 26.105553,-3.767544 6.93846,0 13.00658,0.58885 18.67233,1.811961 37.5585,8.108056 65.97655,39.24229 70.4096,77.139332 0.60966,5.21182 0.68617,15.53527 0.15161,20.45775 -1.11134,10.2339 -4.03397,20.15388 -8.80444,29.88401 -7.82691,15.96422 -20.49035,29.40296 -36.18344,38.39872 -9.85376,5.64848 -21.64056,9.53136 -33.32401,10.9778 -5.39684,0.66814 -16.990856,0.65691 -22.278849,-0.0216 z m 25.821089,-11.01666 c 6.48256,-1.21651 10.48783,-2.43219 16.75694,-5.08606 6.96576,-2.94878 12.70146,-6.27884 16.0944,-9.34415 1.93033,-1.74394 1.81271,-2.41606 -0.54262,-3.10077 -2.27056,-0.66007 -2.65911,-1.05704 -2.76883,-2.82881 l -0.083,-1.33933 2.43185,-0.45736 c 4.11972,-0.77481 5.99229,-2.60499 6.86118,-6.70584 0.4063,-1.9176 0.11448,-4.83584 -0.65168,-6.51688 l -0.41998,-0.92148 -1.35961,0.65689 c -0.74779,0.36129 -1.97729,0.6569 -2.73222,0.6569 -1.21796,0 -1.44841,-0.14377 -2.04551,-1.27612 -0.65516,-1.24244 -0.6556,-1.28665 -0.0166,-1.67569 4.61491,-2.80965 6.9284,-6.47699 6.9284,-10.98291 0,-2.2321 -0.80675,-5.05307 -1.80975,-6.32818 -0.69564,-0.88436 -0.88509,-0.93898 -2.49088,-0.71812 -1.39381,0.19169 -1.8736,0.11629 -2.42284,-0.38076 -1.02306,-0.92586 -0.85576,-1.59361 1.04403,-4.16721 2.04926,-2.77608 2.69001,-4.97356 2.38927,-8.19413 -0.23752,-2.54357 -1.02758,-4.29028 -2.85733,-6.31716 l -1.27388,-1.41111 -0.60636,0.88194 c -0.90045,1.30969 -2.60244,2.8575 -3.52987,3.21011 -0.65383,0.24858 -1.16616,0.0703 -2.56631,-0.89278 l -1.74939,-1.20337 1.49846,-1.75628 c 1.8456,-2.16315 2.72533,-4.42405 2.97587,-7.64795 0.26589,-3.42147 -0.30753,-5.40438 -1.70357,-5.89105 -0.58694,-0.20461 -2.50409,-1.07138 -4.26031,-1.92615 -1.75622,-0.85477 -3.22976,-1.50933 -3.27452,-1.45458 -0.0448,0.0548 -0.34855,0.91758 -0.67509,1.91739 -0.70027,2.14412 -2.74378,5.18136 -5.3042,7.88355 -1.82422,1.92524 -1.84752,1.97856 -3.0055,6.87917 -0.64186,2.71639 -1.52284,7.32014 -1.95772,10.23056 -0.43489,2.91041 -1.13787,6.20218 -1.56218,7.31503 -3.0419,7.97809 -11.84606,14.3808 -19.7746,14.3808 -7.928533,0 -16.732697,-6.40271 -19.774595,-14.3808 -0.42431,-1.11285 -1.12729,-4.40462 -1.562176,-7.31503 -0.434886,-2.91042 -1.315863,-7.51417 -1.957726,-10.23056 -1.157978,-4.90061 -1.181274,-4.95393 -3.005502,-6.87917 -2.560419,-2.70219 -4.603924,-5.73943 -5.304196,-7.88355 -0.326536,-0.99981 -0.630327,-1.86263 -0.675091,-1.91739 -0.04476,-0.0547 -1.518298,0.59981 -3.274521,1.45458 -1.756223,0.85477 -3.673364,1.72154 -4.260313,1.92615 -1.396039,0.48667 -1.969455,2.46958 -1.703564,5.89105 0.250538,3.2239 1.130267,5.4848 2.975868,7.64795 l 1.498458,1.75628 -1.749389,1.20337 c -1.400148,0.96313 -1.912476,1.14136 -2.566309,0.89278 -0.927427,-0.35261 -2.629416,-1.90042 -3.529869,-3.21011 l -0.606365,-0.88194 -1.273872,1.41111 c -1.82975,2.02688 -2.61981,3.77359 -2.857332,6.31716 -0.300742,3.22057 0.340005,5.41805 2.389265,8.19413 1.899795,2.5736 2.067091,3.24135 1.044036,4.16721 -0.549239,0.49705 -1.029037,0.57245 -2.422842,0.38076 -1.605789,-0.22086 -1.795244,-0.16624 -2.490878,0.71812 -1.002999,1.27511 -1.80975,4.09608 -1.80975,6.32818 0,4.50592 2.313488,8.17326 6.9284,10.98291 0.639006,0.38904 0.638568,0.43325 -0.01659,1.67569 -0.597103,1.13235 -0.827549,1.27612 -2.045514,1.27612 -0.75493,0 -1.984427,-0.29561 -2.732215,-0.6569 l -1.359615,-0.65689 -0.419976,0.92148 c -0.76616,1.68104 -1.05798,4.59928 -0.65168,6.51688 0.868884,4.10085 2.741461,5.93103 6.861173,6.70584 l 2.431851,0.45736 -0.08294,1.33933 c -0.109722,1.77177 -0.498272,2.16874 -2.76883,2.82881 -2.355336,0.68471 -2.472953,1.35683 -0.542619,3.10077 4.571896,4.13043 14.285957,9.15075 23.679113,12.23758 2.725768,0.89575 10.452374,2.4928 16.051388,3.31772 0.582083,0.0858 4.471457,0.11348 8.643057,0.0616 6.74815,-0.0839 8.22674,-0.21482 13.40555,-1.18668 z m -20.339844,-1.81986 c -3.419372,-0.72438 -7.080394,-3.57825 -8.797516,-6.85791 l -0.985585,-1.88244 -2.329344,-0.16667 c -5.071492,-0.36286 -9.941048,-3.96666 -12.585108,-9.31383 -1.1987,-2.42417 -1.364986,-3.07995 -1.459113,-5.75427 -0.06375,-1.81129 0.08272,-3.65314 0.366267,-4.6058 0.431565,-1.44996 0.578311,-1.59599 1.693735,-1.68553 0.671678,-0.0539 1.935607,0.11575 2.808732,0.37705 1.260199,0.37713 1.561567,0.61555 1.461719,1.15636 -0.06918,0.37471 -0.145067,1.79254 -0.168639,3.15073 -0.03526,2.03165 0.137716,2.86349 0.975699,4.69211 1.179545,2.57397 3.777033,5.1369 5.829349,5.75179 1.339379,0.40129 5.839595,0.26936 7.335899,-0.21505 0.716043,-0.23182 0.794509,-0.1407 0.801498,0.9307 0.01868,2.86397 3.337049,7.22478 6.254031,8.2187 0.9833,0.33504 2.8292,0.55369 4.67433,0.55369 1.84513,0 3.69104,-0.21865 4.67433,-0.55369 2.91699,-0.99392 6.23535,-5.35473 6.25404,-8.2187 0.007,-1.0714 0.0855,-1.16252 0.80149,-0.9307 1.49631,0.48441 5.99652,0.61634 7.3359,0.21505 2.05232,-0.61489 4.64981,-3.17782 5.82935,-5.75179 0.83798,-1.82862 1.01096,-2.66046 0.9757,-4.69211 -0.0236,-1.35819 -0.0995,-2.77602 -0.16864,-3.15073 -0.0999,-0.54081 0.20152,-0.77923 1.46172,-1.15636 0.87313,-0.2613 2.13705,-0.43097 2.80873,-0.37705 1.11543,0.0895 1.26217,0.23557 1.69374,1.68553 0.28355,0.95266 0.43002,2.79451 0.36626,4.6058 -0.0941,2.67432 -0.26041,3.3301 -1.45911,5.75427 -2.64406,5.34717 -7.51362,8.95097 -12.58511,9.31383 l -2.32934,0.16667 -0.98559,1.88244 c -1.25768,2.40214 -3.90589,4.87999 -6.48265,6.06561 -1.8556,0.8538 -2.44115,0.93516 -7.30887,1.01554 -2.91042,0.0481 -5.951475,-0.0524 -6.757904,-0.22324 z m 0.973979,-19.6142 c -4.307676,-1.1584 -7.27022,-3.70033 -9.63367,-8.2659 -1.178504,-2.27656 -1.184655,-2.28173 -3.035667,-2.54811 -3.515274,-0.5059 -6.852999,-2.79778 -9.01797,-6.19227 -2.250017,-3.52784 -2.519569,-4.40853 -2.479168,-8.10002 0.01964,-1.79476 -0.09068,-3.2632 -0.245168,-3.2632 -0.619775,0 -3.152615,-4.08551 -3.870804,-6.24367 -0.618389,-1.85826 -0.736579,-2.88272 -0.616946,-5.34761 0.126582,-2.60804 0.332747,-3.43165 1.425517,-5.69483 0.702643,-1.45521 1.763893,-3.11017 2.358333,-3.67769 l 1.0808,-1.03186 1.944749,1.3394 c 1.069612,0.73667 1.94475,1.47331 1.94475,1.63697 0,0.16366 -0.46911,1.03728 -1.042467,1.94137 -3.233024,5.09795 -1.323882,12.4593 3.779508,14.57319 l 1.111236,0.46029 -0.677018,0.93403 c -2.147399,2.96258 -1.155886,8.33826 2.021974,10.96252 2.052312,1.69479 4.528422,2.34305 7.420201,1.94267 l 2.379777,-0.3295 0.0018,2.11667 c 0.0033,3.90707 2.972298,7.58851 6.998118,8.67735 2.48754,0.67279 6.21694,0.23807 8.39617,-0.97871 3.07409,-1.71644 5.22899,-5.6041 4.75372,-8.57623 l -0.20148,-1.26001 2.45963,0.33996 c 2.97779,0.41158 5.42545,-0.219 7.50006,-1.9322 3.17786,-2.62426 4.16937,-7.99994 2.02197,-10.96252 l -0.67701,-0.93403 1.11123,-0.46029 c 5.10339,-2.11389 7.01253,-9.47524 3.77951,-14.57319 -0.57336,-0.90409 -1.04247,-1.77771 -1.04247,-1.94137 0,-0.16366 0.87514,-0.9003 1.94475,-1.63697 l 1.94475,-1.3394 1.0808,1.03186 c 0.59444,0.56752 1.65569,2.22248 2.35834,3.67769 2.42439,5.02104 1.91418,10.72887 -1.36886,15.31358 -0.77687,1.08489 -1.53889,1.97253 -1.69338,1.97253 -0.15448,0 -0.26481,1.46844 -0.24517,3.2632 0.0404,3.69149 -0.22915,4.57218 -2.47916,8.10002 -2.16497,3.39449 -5.5027,5.68637 -9.01797,6.19227 -1.85102,0.26638 -1.85717,0.27155 -3.03567,2.54811 -2.40106,4.63823 -5.33909,7.12526 -9.78548,8.2834 -2.57269,0.6701 -7.1259,0.66185 -9.652148,-0.0175 z m 10.200695,-31.05243 c 3.29453,-1.55353 6.39961,-4.55552 7.93649,-7.67298 1.07783,-2.18629 1.33614,-3.24548 1.94826,-7.98853 0.81579,-6.32134 2.04358,-11.60424 3.54065,-15.23468 0.82372,-1.99752 1.61143,-3.12833 3.6304,-5.21165 2.32621,-2.40035 2.64442,-2.90218 3.25293,-5.13006 0.91031,-3.3328 0.92442,-9.34214 0.0294,-12.52361 l -0.64508,-2.29306 -2.0975,0.11996 c -2.61202,0.14939 -6.29728,-0.90834 -8.35287,-2.39741 l -1.46761,-1.06313 -1.68621,1.25281 c -4.01309,2.98161 -9.35473,4.3978 -13.91756,3.68986 -2.963483,-0.45981 -6.484139,-1.92642 -8.857635,-3.68986 l -1.686209,-1.25281 -1.467607,1.06313 c -2.055599,1.48907 -5.740857,2.5468 -8.352876,2.39741 l -2.097494,-0.11996 -0.64508,2.29306 c -0.895008,3.18147 -0.880894,9.19081 0.02941,12.52361 0.608515,2.22788 0.92672,2.72971 3.25293,5.13006 2.018975,2.08332 2.806687,3.21413 3.630398,5.21165 1.492943,3.62042 2.723516,8.90593 3.538341,15.19774 0.815459,6.29671 1.763992,8.79614 4.412778,11.62791 4.854837,5.19021 10.607484,6.64721 16.071724,4.07054 z m -7.71545,-2.22149 c -0.79931,-0.20992 -0.83113,-0.3511 -0.88194,-3.91285 l -0.0527,-3.69507 -2.450152,-1.68381 c -2.898727,-1.99207 -3.0055,-2.13404 -3.012498,-4.00542 -0.0053,-1.40439 0.759719,-2.61232 1.654359,-2.61232 0.203216,0 1.84089,0.69923 3.639271,1.55383 3.69995,1.75824 3.63454,1.76195 8.02691,-0.4553 2.52821,-1.27624 2.93921,-1.32621 3.7291,-0.45339 0.60789,0.67171 0.79124,3.06822 0.29457,3.8503 -0.15316,0.24118 -1.38104,1.19621 -2.72862,2.1223 l -2.45016,1.68381 -0.0528,3.68726 c -0.0524,3.65895 -0.0599,3.68916 -0.9743,3.93372 -1.10547,0.29565 -3.59168,0.2888 -4.74105,-0.0131 z M 91.665286,138.84073 c -0.776111,-0.21719 -1.586532,-0.5091 -1.800934,-0.64869 -0.214403,-0.13958 -0.476762,-1.52219 -0.58302,-3.07246 -0.258433,-3.77046 -1.175677,-5.4444 -3.780479,-6.89923 -1.600375,-0.89384 -2.003551,-1.31893 -2.354139,-2.48209 -0.232671,-0.77195 -0.435238,-1.99885 -0.45015,-2.72645 l -0.02711,-1.32292 h 2.076382 c 3.938203,0 7.477746,2.75315 8.660677,6.73651 0.681753,2.29572 1.413039,8.82306 1.11951,9.99258 -0.249978,0.99599 -0.618003,1.05038 -2.860737,0.42275 z m 23.597594,-0.42275 c -0.29353,-1.16952 0.43776,-7.69686 1.11951,-9.99258 1.18293,-3.98336 4.72248,-6.73651 8.66068,-6.73651 h 2.07638 l -0.0271,1.32292 c -0.0149,0.7276 -0.21748,1.9545 -0.45015,2.72645 -0.35059,1.16316 -0.75376,1.58825 -2.35414,2.48209 -2.6048,1.45483 -3.52205,3.12877 -3.78048,6.89923 -0.10626,1.55027 -0.36861,2.93182 -0.58302,3.07011 -0.4426,0.28548 -3.3405,1.09891 -3.99907,1.12252 -0.23884,0.009 -0.53701,-0.39384 -0.6626,-0.89423 z m -54.818426,-7.3551 c 3.148501,-0.67492 5.32938,-1.45432 8.643055,-3.08888 l 2.822222,-1.39213 0.06248,-2.62288 c 0.03437,-1.44258 -0.0106,-2.62288 -0.09992,-2.62288 -0.08932,0 -0.911189,0.37719 -1.826371,0.8382 -4.849468,2.44287 -11.455081,3.9382 -15.725513,3.55984 -3.322376,-0.29436 -4.880826,-0.78375 -4.743237,-1.48947 0.321071,-1.64685 16.015357,-8.0302 20.812819,-8.46522 1.1269,-0.10218 2.048909,-0.25844 2.048909,-0.34724 0,-0.0888 -0.595759,-0.83827 -1.323908,-1.66549 -0.728149,-0.82722 -1.684325,-2.22571 -2.124837,-3.10775 l -0.800931,-1.6037 -2.19669,0.50036 c -7.816854,1.78054 -13.410064,4.12904 -17.779118,7.46519 -3.086187,2.35657 -6.253309,5.56864 -7.493126,7.59949 l -0.820459,1.34392 0.835507,0.89201 c 1.094502,1.16852 5.92371,3.49385 8.599027,4.14055 2.730136,0.65996 8.188166,0.69242 11.110091,0.0661 z m 99.836106,-0.0452 c 2.80791,-0.65951 7.63966,-2.95141 8.77301,-4.1614 l 0.8355,-0.89201 -0.82045,-1.34392 c -1.23982,-2.03085 -4.40694,-5.24292 -7.49313,-7.59949 -4.36905,-3.33615 -9.96226,-5.68465 -17.77912,-7.46519 l -2.19669,-0.50036 -0.80093,1.6037 c -0.44051,0.88204 -1.39669,2.28053 -2.12484,3.10775 -0.72815,0.82722 -1.3239,1.57669 -1.3239,1.66549 0,0.0888 0.92201,0.24506 2.0489,0.34724 4.79747,0.43502 20.49175,6.81837 20.81282,8.46522 0.13759,0.70572 -1.42086,1.19511 -4.74323,1.48947 -4.27043,0.37836 -10.87605,-1.11697 -15.72552,-3.55984 -0.91518,-0.46101 -1.73704,-0.8382 -1.82637,-0.8382 -0.0893,0 -0.13428,1.1803 -0.0999,2.62288 l 0.0625,2.62288 2.82223,1.39213 c 5.23931,2.58442 8.92259,3.52526 13.93472,3.55941 1.85435,0.0126 4.37567,-0.21775 5.64444,-0.51576 z M 110.0471,112.11961 c 2.1355,-0.79899 3.8771,-2.36732 5.78346,-5.20805 1.04621,-1.55898 1.67528,-2.05532 4.12016,-3.2508 1.58699,-0.77599 3.47707,-1.50691 4.20018,-1.62425 l 1.31475,-0.21336 -0.24405,2.07656 c -0.2537,2.15853 -0.73017,3.16652 -2.29296,4.8508 -0.87721,0.94541 -0.89178,1.02036 -0.28511,1.46609 0.35164,0.25835 1.6805,0.75156 2.95301,1.09601 4.25214,1.151 7.83747,-0.31031 9.49493,-3.86993 1.16925,-2.51116 1.14384,-5.28979 -0.0732,-8.001693 -1.21689,-2.711583 -2.92629,-3.93555 -5.78523,-4.142347 l -2.06269,-0.149201 -0.42557,-1.811524 c -0.57919,-2.465411 -1.12404,-3.445877 -2.66847,-4.801899 -2.45661,-2.156935 -4.73345,-2.606099 -8.11702,-1.601287 l -1.7632,0.523617 -1.97384,-1.911809 c -4.23843,-4.105249 -10.41718,-4.105249 -14.655619,0 L 95.592808,87.458346 93.8296,86.934729 c -3.383569,-1.004812 -5.660405,-0.555648 -8.117019,1.601287 -1.544424,1.356022 -2.089279,2.336488 -2.668467,4.801899 l -0.425574,1.811524 -2.062683,0.149201 c -2.858944,0.206797 -4.568345,1.430764 -5.785231,4.142347 -1.217031,2.711903 -1.242446,5.490533 -0.07319,8.001693 1.047246,2.24911 2.731026,3.56277 5.241548,4.08935 1.639939,0.34398 2.297282,0.31007 4.253376,-0.21942 1.272514,-0.34445 2.601371,-0.83766 2.953016,-1.09601 0.606669,-0.44573 0.592094,-0.52068 -0.285117,-1.46609 -1.562787,-1.68428 -2.039259,-2.69227 -2.292951,-4.8508 l -0.244059,-2.07656 1.314752,0.21336 c 0.723114,0.11734 2.613197,0.84826 4.200185,1.62425 2.401119,1.17408 3.092677,1.71222 4.120154,3.20613 2.208883,3.21161 2.827224,3.83644 4.706481,4.75588 3.560069,1.74178 7.585279,1.91748 11.382279,0.49684 z"
         id="path2"
         inkscape:label="sheep" /><circle
         style="fill:none;stroke:#000000;stroke-width:5;stroke-dasharray:none"
         id="path1"
         cx="104.89445"
         cy="148.29906"
         r="102.88498"
         inkscape:label="circle" /></g></g></svg>
